<?xml version="1.0" standalone="no"?>
<!DOCTYPE svg PUBLIC "-//W3C//DTD SVG 20010904//EN"
 "http://www.w3.org/TR/2001/REC-SVG-20010904/DTD/svg10.dtd">
<svg version="1.0" xmlns="http://www.w3.org/2000/svg"
 width="369.000000pt" height="368.000000pt" viewBox="0 0 369.000000 368.000000"
 preserveAspectRatio="xMidYMid meet">

<g transform="translate(0.000000,368.000000) scale(0.100000,-0.100000)"
fill="#000000" stroke="none">
<path d="M1737 3433 c-2 -5 -7 -25 -11 -45 -13 -72 -81 -128 -156 -128 -63 0
-113 34 -155 104 -9 15 -20 13 -115 -23 l-105 -39 0 -64 c0 -106 -51 -168
-147 -176 -48 -4 -58 -1 -103 31 l-50 34 -87 -75 c-49 -41 -88 -76 -88 -79 0
-2 9 -21 20 -43 28 -54 27 -127 -3 -171 -12 -19 -44 -45 -71 -58 -49 -25 -75
-24 -147 4 -12 4 -29 -20 -74 -101 l-58 -107 27 -20 c15 -10 36 -37 47 -60 55
-107 -23 -237 -141 -237 l-47 0 -17 -102 c-10 -57 -20 -111 -22 -120 -4 -12 7
-22 38 -36 48 -21 95 -70 104 -108 21 -82 -24 -170 -101 -199 -37 -15 -44 -21
-40 -39 6 -28 35 -199 35 -208 0 -5 18 -8 40 -8 80 0 155 -60 167 -134 9 -59
-5 -105 -48 -151 l-40 -43 57 -102 c50 -89 59 -101 78 -95 132 41 225 -14 234
-137 4 -46 0 -65 -18 -95 l-22 -38 48 -44 c27 -24 68 -59 91 -78 l43 -35 30
26 c46 38 101 52 149 37 80 -24 129 -105 116 -194 l-6 -42 103 -38 c57 -20
106 -37 110 -37 4 0 19 18 33 41 28 43 89 79 135 79 73 0 144 -64 156 -143 l7
-37 118 0 119 0 6 28 c18 86 66 137 138 147 62 10 128 -22 159 -76 12 -21 27
-39 32 -39 6 0 55 17 109 38 l99 37 1 71 c1 61 5 76 28 106 34 44 103 73 150
64 18 -3 52 -20 76 -37 l42 -30 89 76 90 76 -25 52 c-13 29 -24 63 -24 77 0
41 42 113 80 138 29 20 44 23 90 19 30 -3 64 -8 75 -11 17 -6 28 9 77 96 l57
102 -39 42 c-67 73 -72 155 -14 224 34 40 57 51 118 59 l51 6 17 95 c24 132
23 135 -12 150 -144 60 -154 244 -16 309 52 24 51 18 28 156 l-17 100 -55 5
c-84 8 -127 45 -149 126 -15 55 1 106 49 158 l38 41 -45 80 c-77 137 -65 126
-122 107 -66 -21 -116 -7 -164 47 -50 55 -57 111 -25 183 l25 54 -90 77 -90
78 -26 -24 c-39 -36 -65 -47 -114 -47 -52 0 -100 28 -135 80 -21 30 -23 44
-19 97 l5 62 -54 21 c-30 11 -80 30 -111 41 -38 15 -58 18 -61 11 -10 -32 -51
-79 -82 -95 -47 -24 -125 -19 -167 12 -30 23 -56 69 -67 124 l-6 27 -115 0
c-62 0 -116 -3 -118 -7z m141 -285 c17 -17 15 -43 -4 -59 -31 -26 -70 25 -44
56 15 18 32 19 48 3z m-268 -38 c8 -14 8 -26 0 -40 -14 -25 -46 -26 -60 -1
-13 25 -13 27 6 45 21 22 41 20 54 -4z m538 8 c17 -17 15 -43 -4 -59 -31 -26
-70 25 -44 56 15 18 32 19 48 3z m-797 -100 c10 -18 8 -24 -10 -39 -25 -21
-48 -16 -56 12 -14 44 44 67 66 27z m1067 -7 c5 -32 -23 -54 -49 -40 -11 5
-19 18 -19 27 0 45 62 56 68 13z m-268 -45 c439 -123 763 -463 872 -915 29
-121 36 -363 14 -487 -44 -254 -151 -472 -322 -654 -346 -367 -868 -478 -1324
-281 -310 133 -569 421 -673 746 -86 267 -82 562 9 817 124 343 391 616 726
739 155 58 232 69 428 65 151 -3 188 -8 270 -30z m-1040 -81 c23 -28 -9 -72
-44 -59 -20 8 -25 25 -15 52 9 25 41 29 59 7z m1538 3 c30 -30 0 -78 -37 -58
-32 17 -21 70 14 70 6 0 16 -5 23 -12z m-1738 -198 c15 -28 -22 -65 -50 -50
-22 12 -26 40 -8 58 18 18 46 14 58 -8z m1951 -1 c9 -18 8 -25 -8 -41 -22 -22
-49 -16 -58 13 -14 43 44 67 66 28z m-2116 -244 c0 -27 -3 -30 -30 -30 -21 0
-31 5 -33 18 -6 33 6 49 35 45 24 -3 28 -8 28 -33z m2276 19 c17 -21 0 -49
-31 -49 -31 0 -48 28 -31 49 8 9 21 16 31 16 10 0 23 -7 31 -16z m-2383 -282
c-2 -23 -8 -27 -33 -27 -24 0 -31 5 -33 24 -5 32 23 54 50 40 13 -7 18 -19 16
-37z m2495 16 c8 -12 7 -21 -2 -32 -19 -22 -48 -20 -61 5 -23 41 38 68 63 27z
m-2565 -260 c19 -19 14 -56 -8 -63 -24 -8 -50 10 -50 34 0 19 19 41 35 41 6 0
16 -5 23 -12z m2616 -4 c19 -18 19 -20 6 -45 -17 -31 -70 -18 -70 17 0 14 27
44 40 44 5 0 16 -7 24 -16z m11 -294 c9 -15 -14 -50 -33 -50 -38 0 -53 37 -26
64 16 16 45 9 59 -14z m-2620 -15 c0 -23 -5 -31 -21 -33 -27 -4 -47 21 -39 48
5 16 14 20 33 18 23 -2 27 -8 27 -33z m53 -247 c17 -17 15 -43 -4 -59 -31 -26
-70 25 -44 56 15 18 32 19 48 3z m2506 -10 c13 -21 -2 -51 -26 -56 -16 -3 -48
23 -48 38 0 15 32 41 48 38 8 -2 20 -11 26 -20z m-2400 -244 c20 -8 21 -48 2
-63 -33 -28 -74 27 -44 57 14 14 20 14 42 6z m2286 -13 c18 -34 -10 -68 -44
-55 -35 13 -23 74 14 74 11 0 24 -9 30 -19z m-2111 -230 c14 -26 -8 -54 -39
-49 -28 3 -38 31 -20 53 17 21 47 19 59 -4z m1950 -3 c11 -29 -3 -48 -35 -48
-14 0 -25 8 -29 20 -14 44 48 70 64 28z m-1749 -183 c18 -22 3 -55 -25 -55
-29 0 -47 27 -34 52 12 22 42 23 59 3z m1545 -20 c0 -27 -3 -30 -30 -30 -21 0
-31 5 -33 18 -6 33 6 49 35 45 24 -3 28 -8 28 -33z m-1305 -120 c23 -28 -9
-72 -45 -59 -36 14 -24 74 15 74 10 0 23 -7 30 -15z m1068 -16 c4 -34 -20 -54
-47 -39 -38 20 -18 74 24 68 13 -2 21 -12 23 -29z m-807 -75 c17 -21 0 -49
-31 -49 -31 0 -48 28 -31 49 8 9 21 16 31 16 10 0 23 -7 31 -16z m544 -19 c0
-27 -3 -30 -30 -30 -21 0 -31 5 -33 18 -6 33 6 49 35 45 24 -3 28 -8 28 -33z
m-270 -15 c8 -27 -12 -52 -39 -48 -21 3 -32 28 -22 54 8 22 54 18 61 -6z"/>
</g>
</svg>
