<?xml version="1.0" encoding="UTF-8"?>
<svg version="1.1" viewBox="0 0 1476 1472" width="1280" height="1280" xmlns="http://www.w3.org/2000/svg">
<path transform="translate(0)" d="m0 0h1476v1472h-1476z" fill="#FEFDFD"/>
<path transform="translate(0)" d="m0 0h1476v1472h-1476zm694 96-2 6-6 25-7 14-11 12-11 7-12 5-8 2h-19l-12-3-13-7-12-11-7-10-10-17-6 1-43 16-37 14-4 3 3 20v21l-3 12-8 15-9 10-11 8-11 5-12 3h-15l-13-3-14-7-13-11-7-6-5 1-13 12-11 9-11 10-11 9-10 9-11 9-2 2 1 6 9 16 5 13 2 13-1 16-5 16-7 12-7 8-10 7-12 6-8 2h-26l-20-7-6-2-7 10-9 17-13 23-10 18-9 16 6 7 10 9 7 7 8 13 4 11 2 11v11l-2 12-6 15-6 9-6 7-10 7-12 6-14 3-26 1-2 6-13 74-2 16 10 5 15 6 11 7 9 9 7 11 5 12 2 12v11l-2 14-5 13-9 13-9 8-15 8-18 7-1 4 14 82 2 11 25 1 13 2 12 5 11 8 7 7 7 11 5 11 3 16v11l-4 17-5 10-7 10-5 5-11 10-5 5 8 15 15 27 13 23 8 14 3 5 5-1 24-8 5-1h14l12 3 16 8 12 11 7 11 5 11 3 15v10l-3 15-4 10-10 18 1 5 5 5 13 11 15 13 11 10 11 9 14 12 5-1 11-10 13-9 12-5 4-1h26l14 5 11 7 9 8 10 15 4 12 1 5v20l-2 13v9l12 6 33 12 24 9 17 6 4-1 11-19 7-9 7-7 14-8 16-4h13l12 2 14 6 11 8 8 9 8 16 4 15 3 14 1 1h94l3-8 5-22 7-14 6-7v-2h2l5-5 11-7 11-4 10-2h14l14 3 16 9 4 2 2 4 7 8 10 17 4 5 6-1 37-14 35-13 10-4 1-1v-7l-2-10-1-10v-11l3-15 6-12 8-11 8-7 12-7 13-4h25l11 4 8 4 18 14 5 4 4-1 13-11 14-12 10-9 11-9 11-10 11-9-1-5-11-20-5-15-1-15 2-13 6-15 10-14 9-8 16-8 12-3h15l20 6 10 4 4-1 13-22 6-12 12-21 14-25 1-5-15-13-10-11-8-16-4-15v-11l4-18 7-14 9-11 10-8 10-5 8-3 11-1 23-1 3-9 9-52 5-27v-9l-21-8-12-7-10-9-7-10-6-13-3-15v-13l4-16 6-12 7-9 10-9 16-8 16-6-1-14-7-38-6-36-2-9-28-1-16-4-11-6-10-9-5-6-5-9-5-12-3-14v-9l4-18 6-12 8-10 8-8 11-9-1-5-16-29-13-23-14-25-3-4-27 9-7 1h-14l-10-2-12-5-11-8-9-10-8-15-4-13-1-14 2-14 7-16 9-16-2-5-11-9-15-13-10-9-8-7-13-11-10-9-4-1-13 10-12 9-10 5-14 3h-15l-15-4-12-7-10-9-6-7-5-9-5-14-1-7v-12l3-21v-5l-9-4-77-29h-4l-10 18-8 11-9 8-16 8-11 3h-18l-15-4-11-6-11-9-7-10-5-10-5-19-3-13z" fill="#FEFDFD"/>
<path transform="translate(694,96)" d="m0 0h95l6 26 5 13 7 10 5 6 11 8 11 5 12 3h18l14-4 13-7 10-9 10-15 7-13 7 1 69 26 13 5 1 1-1 11-2 15v12l3 14 5 11 7 10 9 9 13 8 8 3 9 2h15l16-4 11-6 10-8 12-9 5 2 13 12 11 9 12 11 11 9 11 10 9 7 1 4-12 22-4 10-2 14 1 14 4 13 8 15 11 12 13 8 11 4 7 1h14l10-2 20-7 4-1 8 13 25 45 13 23 1 5-15 13-7 7-7 11-4 8-4 18v9l4 17 6 13 6 9 9 9 14 8 16 4 28 1 4 20 9 53 3 17v7l-16 6-16 8-12 11-8 12-5 13-2 10v13l3 15 8 16 6 8 10 9 16 8 16 6v9l-5 27-9 52-3 9-23 1-11 1-15 6-11 8-9 10-7 12-4 12-2 11v11l5 18 7 13 12 13 13 11-1 5-12 22-12 21-7 12-6 11-9 15-4-1-21-7-8-2h-15l-12 3-16 8-11 10-9 14-5 13-2 13 1 15 5 15 12 22-1 4-14 12-10 9-11 9-10 9-14 12-11 9-4-1-14-11-11-8-12-5-4-1h-25l-13 4-13 8-8 7-7 10-6 12-3 15v11l2 16 1 4v7l-9 4-29 11-48 18-4-1-7-11-9-14-6-6v-2l-4-2-12-7-11-4-7-1h-14l-17 4-11 6-8 6-1 2h-2l-2 4-6 9-5 10-7 29-1 1h-94l-2-6-5-21-5-12-6-9-8-9-13-8-14-5-8-1h-13l-16 4-11 6-10 9-7 9-12 20-10-2-13-5-56-21-10-5v-9l2-13v-20l-3-11-4-9-9-13-9-8-12-7-12-4h-26l-12 4-10 6-20 16-4-1-28-24-11-10-11-9-10-9-8-7-1-5 12-22 4-14 1-7v-10l-3-15-8-16-7-9-9-8-16-8-12-3h-14l-15 4-16 6-4-1-6-11-10-18-13-23-14-25-3-6 5-5 13-12 8-10 6-11 4-13 1-6v-11l-3-16-8-16-7-9-10-9-14-7-7-2-34-2-3-17-13-76 1-4 22-9 12-7 9-8 8-12 5-13 2-14v-11l-3-15-8-16-11-12-10-7-14-6-12-5-1-5 11-64 5-27 1-1 26-1 14-3 14-7 11-9 6-8 7-14 3-10 1-8v-11l-3-15-8-16-11-12-15-14 8-16 10-17 13-24 9-16 7-11 2-1 19 7 6 2h26l10-3 12-6 11-9 9-13 5-12 3-16-1-16-4-13-8-16-4-7 1-5 10-9 11-9 10-9 8-7 13-11 14-12 4-3 4 1 10 9 11 8 12 6 13 3h15l15-4 13-7 12-11 8-13 4-9 2-9v-21l-3-20 6-4 54-20 26-10 5 1 9 16 8 11 7 7 11 7 9 4 9 2h19l14-4 13-7 10-9 6-8 6-12 6-25zm24 175-28 2-29 4-33 7-25 7-29 10-28 12-19 9-20 11-26 16-11 8-18 13-14 12-11 9-8 8-8 7-12 12v2h-2l-7 8-10 11-11 14-10 13-12 17-11 17-10 17-10 18-13 28-10 25-11 33-9 36-6 32-5 46v58l4 40 5 29 7 32 5 17 10 30 12 29 17 35 15 26 19 28 13 17 11 13 9 11 17 17 6 7 8 7 7 7 11 9 14 12 11 8 14 10 17 11 17 10 19 10 16 8 26 11 22 8 27 8 30 7 31 5 19 2 17 1h44l29-2 35-5 31-7 31-9 30-11 20-9 17-8 23-13 18-11 12-8 17-12 16-13 11-9 17-16 23-23 7-8 14-17 15-20 10-15 11-17 13-23 14-28 12-29 12-36 7-26 7-34 5-38 1-15v-62l-2-24-5-36-8-36-7-25-9-26-9-22-11-24-10-20-15-25-17-25-13-17-9-11-12-14-14-15-17-17-8-7-14-12-17-13-12-9-15-10-16-10-25-14-23-11-27-11-17-6-26-8-30-7-31-5-20-2-17-1z" fill="#D5100F"/>
<path transform="translate(532,397)" d="m0 0h25l18 3 21 8 14 8 13 10 12 12 10 14 8 14 6 14 5 18 1 8v32l-3 16-7 21-4 8-5-1-23-10-23-6-19-4-15-2v-2l8-6 6-8 4-8 2-8v-13l-3-10-5-10-5-6-10-6-11-4h-13l-13 4-10 7-7 9-5 12-1 6v10l4 14 6 9 8 7 10 5 8 2 28 1 20 3 25 6 20 7 25 12 19 12 13 10 13 11 19 19 11 14 6 9 1 2 4-1 8-11 9-11 9-10 13-13 14-11 15-12 16-9 4 1 3 5v3l-22 14-12 9-10 9-8 7-4 5h-2l-2 4-10 12-16 24-14 27-9 25-5 19-3 15-2 20-2 37-3 20-6 20-12 25-10 16-9 11-11 12-7 7-11 9-14 10-16 8-19 8-24 6-8 1h-29l-22-3-16-4-18-6-15-8-18-12-14-12-15-15-10-13-7-11-9-17-7-19-5-19-2-10-2-24h-7l1 20 4 20 8 26 11 24 11 17 11 13 12 13 7 7 20 14 16 9 11 5 13 5 22 5 12 2 12 1h13l20-2 25-6 25-10 15-8 14-10 11-9 14-14 1-2h2l2-4 10-13 9-15 8-16 6-17 5-18 3-20 2-41 4-28 7-25 8-20 13-24 10-14 12-16 21-21 11-9 13-10 17-10 5 3v4l-17 10-14 10-11 9-12 11-11 13-11 15-10 16-10 21-7 19-4 13-5 24-2 16-2 37-3 21-4 16-6 17-11 22-10 15-11 14-9 10-8 7-13 11-15 10-18 10-23 9-21 5-14 2h-36l-27-5-21-7-19-9-16-10-14-11-10-9-6-5-7-8-10-12-9-14-10-18-9-23-6-24-4-33-1-2h-6v15l4 25 6 22 6 16 12 25 8 12 10 13 12 14 12 11 13 10 21 13 17 8 21 7 23 5 23 2h12l21-2 23-5 20-7 16-7 19-11 14-11 7-6h2v-2l8-7 6-7h2l2-4 8-10 10-15 10-19 8-21 7-27 2-12 3-48 3-22 6-24 8-20 11-21 12-16 5-8 5-5 15-16 8-7 3-1v-2l14-10 13-8 7-4 6 1 3 4-8 5-20 12-12 10-11 9-12 12-12 16-10 16-8 16-5 12-7 21-5 22-2 19-2 37-4 25-6 20-10 24-10 18-10 14-9 11-23 23-12 9-14 9-25 13-19 7-21 5-20 3-21 1-17-1-22-4-27-8-18-8-17-10-14-10-13-11-8-7-7-7-9-11-11-15-10-17-8-17-7-19-5-19-3-20-2-22-7-1 1 22 4 23 7 26 8 20 12 23 14 20 9 11 18 18 10 8 16 11 14 8 16 8 22 8 23 5 12 2 12 1h23l19-2 22-5 21-7 21-9 19-11 16-12 12-11 4-4h2l2-4h2l2-4 8-9 8-11 9-14 8-14 8-18 8-24 4-18 2-15 2-42 4-26 6-21 8-19 9-16 7-11 6-8 1-2h2l2-4 9-10 10-10 10-8 11-8 19-11 8-2 7 3-4 4-21 11-16 11-15 13-9 9-11 14-7 10-8 14-7 14-5 13-7 28-2 18-2 39-3 22-6 23-8 21-12 23-11 17-8 11-12 13-14 14-10 8-18 13-13 8-19 9-16 6-23 6-18 3-10 1h-34l-28-5-18-5-20-8-21-11-21-14-11-9-10-9-15-15-11-14-11-16-6-11-8-17-6-15-8-30-3-19-2-24-7-1 1 22 5 30 8 27 7 18 11 22 10 15 8 11 11 13 16 16 11 9 15 11 18 11 21 10 27 9 25 5 27 2 24-1 22-3 24-6 21-8 26-13 16-11 14-11 16-15 11-11 13-17 15-25 9-19 10-30 5-23 2-16 2-38 5-30 5-17 12-25 12-19 10-12 7-8 8-8 17-13 13-8 17-8 5-2h6l7 3 15 3-1 2-23 6-21 9-11 7-11 8-14 12-11 12-10 15-9 16-7 16-5 15-4 22v39l4 22 8 24 8 16 7 12 13 16 9 10 15 12 14 9 16 8 19 7 16 4 16 2h18l17-2 21-5 16-6 17-9 12-8 11-9 7-6 7-8 11-13 9-15 8-17 7-21 4-22 1-9v-24l-3-20-6-22-6-15-9-17-10-14-9-10-4-5-11-9-8-7-13-8-23-11-16-5-14-3-8-1-29-1-12-2-17-5-14-6-16-10-10-9-5-5-9-10-10-15-6-13-6-19-4-22v-18l3-19 7-22 9-17 9-12 14-15 14-11 11-7 19-7 15-4 6-1h27l17 3 19 7 15 8 11 8 12 11 10 12 10 16 9 21 4 16 1 7v30l-2 14-8 24-4 8-2 1-24-10-19-6-17-4-23-3 4-5 7-6 7-14 2-7v-13l-3-10-6-11-5-5-5-4-10-5-5-1h-13l-13 3-9 7-6 7-6 12-2 10v9l4 14 6 9 9 8 8 4 8 2 27 1 23 3 21 5 23 8 23 11 18 11 19 14 15 14 12 12 9 11 10 13 13 22 8 15 9 23 5 17 6 30 2 27v13l-2 26-5 26-7 24-9 22-11 21-10 15-10 13-9 11-22 22-17 13-17 11-23 12-21 8-21 6-21 4-19 2h-21l-22-2-25-5-17-5-19-7-24-12-18-12-12-9-15-14-11-11-7-8-11-14-5-7v-2h-3l-2 5-7 11-11 12-7 8-10 10-11 9-10 8-13 9-14 8-21 10-15 6-26 7-25 4-17 1h-14l-23-2-24-5-23-7-18-8-19-10-11-7-14-10-13-11-8-7-16-17-11-14-10-15-9-16-10-21-9-27-4-17-4-28v-44l4-26 5-21 10-28 13-25 10-16 7-10 11-13 28-28 13-10 17-11 7-4 4 2 11 14 9 10 13 11 17 10 16 6 11 2v2l-22 6-18 8-16 9-12 9-10 9-9 9-8 10-12 19-9 20-7 21-4 25v24l4 26 6 20 7 16 8 15 12 17 15 16 14 11 16 10 17 8 22 7 20 3h31l27-5 17-6 16-8 15-10 10-8 12-11 9-11 10-14 8-15 6-15 6-20 4-24v-20l-2-20-4-18-5-15-7-16-10-17-10-13-11-12-11-9-9-7-15-9-15-7-18-6-14-3-10-1-27-1-16-3-16-5-17-8-14-10-12-11-11-13-9-14-5-12-6-18-3-15v-32l6-24 5-13 10-19 12-14 7-7 10-8 18-11 11-5 13-4z" fill="#DBA62B"/>
<path transform="translate(833,628)" d="m0 0 2 1-16 11-4 2v2l-8 7-10 9-9 10-2 3h-2l-2 5-14 19-12 23-7 18-6 24-3 22-3 48-4 21-6 21-9 22-9 17-7 10-11 14-9 10-7 7h-2v2l-14 11-12 9-22 12-21 8-17 5-21 4-15 1h-12l-23-2-27-6-22-8-19-10-18-12-13-11-13-12-9-11-9-12-10-16-11-23-8-24-5-23-2-17v-10l3-3 5 1 1 2 4 33 6 24 10 25 10 18 11 16 13 14 4 4v2l4 2 10 9 15 11 17 10 18 8 18 6 27 5h36l24-4 16-5 22-9 19-11 12-9 11-9 11-10 9-11 10-13 9-15 11-23 6-18 4-21 4-56 4-22 5-19 6-17 8-18 8-15 11-16 11-14 14-15 11-9 6-5 2 1 1 3 5-1 5-4z" fill="#FEFDF8"/>
<path transform="translate(781,722)" d="m0 0 4 4 3 1-2 6-6 14-4 14-5 30-2 38-3 21-6 25-8 23-11 23-7 11-9 14-8 10-9 10-14 14-8 7-13 10-18 12-26 13-19 7-24 6-22 3-24 1-27-2-25-5-27-9-25-12-21-14-13-10-15-14-12-12-11-14-10-15-8-14-10-21-9-27-4-16-4-25v-22l4-1 4 2 3 32 4 19 7 24 7 18 10 19 10 16 13 16 7 8 4 4v2l4 2 7 7 14 11 18 12 16 9 17 8 21 7 29 6 7 1h34l22-3 18-4 17-5 15-6 19-10 12-8 14-10 14-12 17-17 8-10 13-20 9-16 8-17 8-24 4-19 2-16 2-39 2-18 7-28 7-17z" fill="#FEFCF7"/>
<path transform="translate(783,701)" d="m0 0 1 3-6 9-9 19-7 21-5 25-1 9-2 42-4 25-7 24-9 22-11 20-8 12-10 13-9 11-8 7-10 10-13 10-15 10-15 8-20 8-18 6-22 5-19 2h-23l-17-2-22-4-20-6-19-8-18-10-12-8-9-7-11-9-19-19-14-19-8-13-12-23-7-19-6-23-4-23v-22h7l1 1 3 29 3 17 7 24 9 21 9 17 7 10 12 16 14 15 14 12 11 8 15 10 17 9 19 7 27 7 13 2 24 1 23-2 24-5 20-6 25-12 17-10 13-10 10-9 3-3h2l2-4 11-11 10-13 11-18 8-16 8-20 5-17 4-25 2-37 3-25 5-20 9-25 3-7 1 2 6-5 6-8h2l2-4z" fill="#FEFDF7"/>
<path transform="translate(802,621)" d="m0 0 2 1-4 5 2 1 9-4h3l-13 11-10 9-14 14-14 19-10 15-12 23-8 22-6 24-3 23-2 41-3 20-7 25-8 19-11 19-15 20h-2l-2 4-16 16-13 10-16 10-17 8-19 7-22 5-23 2h-10l-18-2-24-5-12-4-16-7-16-9-17-12-10-9-9-9-7-8-11-14-11-19-9-21-7-23-4-20-1-20 1-1h7l1 1 2 24 5 22 7 21 9 19 7 11 10 13 9 10 11 11 14 11 21 13 13 6 19 6 22 4 10 1h29l17-3 18-5 21-9 14-8 12-9 14-12 10-10 11-14 10-15 11-22 7-21 3-15 2-23 1-23 3-25 5-22 9-27 12-25 9-15 12-17 11-13 1-2h2l2-4 8-8 11-9z" fill="#FEFDED"/>
<path transform="translate(321,806)" d="m0 0 6 2 3 32 4 19 7 24 7 18 10 19 10 16 13 16 7 8 4 4v2l4 2 7 7 14 11 18 12 16 9 17 8 21 7 29 6 7 1h34l17-1v1l-26 3h-21l-19-1v2l26 3h14l34-3 25-6 4 1-23 6-16 3-27 2-25-1-26-4-21-6-21-8-23-12-16-11-13-10-15-14-12-12-11-14-10-15-8-14-10-21-9-27-4-16-4-25v-22z" fill="#FFF8E1"/>
<path transform="translate(335,807)" d="m0 0h7l1 1 3 29 3 17 7 24 9 21 9 17 7 10 12 16 14 15 14 12 11 8 15 10 17 9 19 7 27 7 13 2 24 1 23-2h6l-3 2 3 3h7l23-6 3 1-16 5-24 5-13 1h-23l-17-2-22-4-20-6-19-8-18-10-12-8-9-7-11-9-19-19-14-19-8-13-12-23-7-19-6-23-4-23z" fill="#FEFDED"/>
<path transform="translate(367,807)" d="m0 0h7l1 1 2 24 5 22 7 21 9 19 7 11 10 13 9 10 11 11 14 11 21 13 13 6 19 6 22 4 10 1h36v1l-10 1-1 2-4 1h19l12-3h7l-4 2-25 5-16 1h-10l-18-2-24-5-12-4-16-7-16-9-17-12-10-9-9-9-7-8-11-14-11-19-9-21-7-23-4-20-1-20z" fill="#FEFDED"/>
<path transform="translate(833,628)" d="m0 0 2 1-16 11-4 2v2l-8 7-10 9-9 10-2 3h-2l-2 5-14 19-12 23-7 18-6 24-3 22-3 48-4 21-4 14-2-3-1-7 4-7-1-9-1-2-1 5h-1l1-16 2-37 4-27 4-17 8-23 8-18 8-15 11-16 11-14 14-15 11-9 6-5 2 1 1 3 5-1 5-4z" fill="#FEFDED"/>
<path transform="translate(264,696)" d="m0 0h2v10l-3 29v58l4 40 5 29 7 32 5 17 10 30 12 29 17 35 15 26 19 28 13 17 11 13 9 11 17 17 5 6 8 7 7 7 11 9 14 12 11 8 14 10 11 7v2l-4-1-8-5v-2l-6-2-8-6-2-1v-2l-5-2-13-11-2-1v-2l-6-3v-2l-4-2-16-15-10-9-6-5-5-6-7-8-9-9-4-5-1-2-3-1v-5h-2l-4-6-3-2v-2l-3-1-2-4-1-3h-2v-4l-4-1-3-4-1-4-4-4v-2h-2l-3-5-4-4-4-10v-3h-2l-2-7h-2l-3-5-6-4-6-11-3-9-3-5-1-3h-2l-1-7-2-2v-3h2l-2-5-3-2h2l-1-10-3-1-1-4v-7h-2l-6-18-1-5h-1l-3-15-3-8v-10h-2l-2-12v-6h-2l-2-12-1-11-2-5v-16l-2-17-1-6-1-24 1-21 2-26 2-4 1-21z" fill="#C41B16"/>
<path transform="translate(713,838)" d="m0 0 2 1 2 6v8l-7 22-7 15-8 15-10 14-7 9h-2l-2 4-16 16-13 10-16 10-17 8-16 6-10 1-12 3h-19l-3-2 7-1 6-2 19-5 16-5 19-8 14-8 12-9 14-12 10-10 11-14 10-15 11-22 7-21 2-9h2z" fill="#FEFDF7"/>
<path transform="translate(353,806)" d="m0 0 5 1 1 2 4 33 6 24 10 25 10 18 11 16 13 14 4 4v2l4 2 10 9 15 11 17 10 18 8 14 5-4 1-20-7-14-7-9-5-10-7-3-2v-2l-4-1-8-6v-2l-5-2-3-3v-2l-4-2-3-3-10-14-4-4-4-6v-2l-6-1 7 11 8 11 5 3 8 9 5 4 7 8 3 3v2l4 2 2 3-4-2-11-9-14-13-9-11-9-12-10-16-11-23-8-24-5-23-2-17v-10z" fill="#FFF8E1"/>
<path transform="translate(783,701)" d="m0 0 1 3-6 9-9 19-7 21-5 25-1 9-2 42-4 25-2 4-2-4-4-2-2 4 1-10 2-14 2-37 3-25 5-20 9-25 3-7 1 2 6-5 6-8h2l2-4z" fill="#FFF8E1"/>
<path transform="translate(384,913)" d="m0 0 6 1 6 9v2l4 2 7 10 2 5 4 2 5 5 5 3v2l4 2 5 4 3 1 3 3 10 7 16 9 21 8 6 2 23 4 12 2 36 1v1h-33l1 4 6 1 29 1v-2h12v1l-11 2-15 1h-12l-23-2-27-6-22-8-19-10-15-10-4-5-3-3v-2l-4-2-8-9-3-1-6-8-3-3-4-2-12-17z" fill="#FEFEEE"/>
<path transform="translate(341,684)" d="m0 0 1 2-12 23-11 31-6 29-2 15v44l4 28 6 24 9 25 8 16 6 11 11 17 12 16 10 10 7 8 11 10 17 13 15 10 30 15 15 6 21 6 20 4 23 2h14l17-1 25-4 26-7 26-11 8-4 2 1-16 8-18 8-26 7-21 4-21 2h-18l-21-2-17-3-25-6-19-8-16-8-13-7-28-21-7-6v-2l-4-2-8-8-7-8-9-11-12-17-6-9-8-16-10-21-6-18-5-21-5-32v-39l5-31 4-17 7-21 8-18z" fill="#FFF8E1"/>
<path transform="translate(781,722)" d="m0 0 4 4 3 1-2 6-6 14-4 14-5 30-2 38-3 21-1 5h-1v-8l-5-1-1 8h-1l1-14 2-26 2-31 3-17 7-25 8-18z" fill="#FFF8E1"/>
<path transform="translate(335,807)" d="m0 0h7l1 1 3 29 3 17 7 24 9 21 9 17 14 20h-3l-6-7-5-9v-2h-2l-4-6-2-6-3 1 1 5 8 13 6 8 4 7 9 11 4 4-1 2-8-8-14-19-8-13-12-23-7-19-6-23-4-23z" fill="#FFF8E1"/>
<path transform="translate(747,739)" d="m0 0 1 3-5 20-3 22-3 48-4 21-4 14-2-3-1-7 4-7-1-9-1-2-1 5h-1l1-16 2-37 4-27 2-8h1l-1 9-1 2h3l2-10 2-3h2l1-9z" fill="#FFF8E1"/>
<path transform="translate(742,850)" d="m0 0 1 2 5 1v9l-8 24-6 14-11 20-8 12-10 13-9 11-8 7-1-3 4-1 1-4 6-5 6-10 2-3v-2l-8 6 2-4 9-12 9-15 8-16 8-20 5-17z" fill="#FEFDEE"/>
<path transform="translate(931,478)" d="m0 0h13l10 3 9 6 5 5 6 9 4 9 1 5v13l-4 12-6 10-10 9 26 4 20 5 20 7 16 7-3 1 3 6-6-2-16-7-25-8-19-4-18-2-27-1-8-2v-1h9v2l13-1h12l-1-4 11-9 6-9 3-8 1-5v-12l-4-13-7-10-8-7-7-4-5-1h-17l-8 2-6 2 4-4z" fill="#FEFBE8"/>
<path transform="translate(354,924)" d="m0 0 5 2 5 9 6 7 7 9 4 3 3 5 10 11v2h2v2l5 2 12 10 17 12 10 6 11 5v2l5 1 19 8 9 5 8 1 7 3-2 2-10-2-5-2-18-5-22-10-10-6-15-10-9-7-7-5-6-7-8-7-10-10-8-11-4-4-10-16z" fill="#FFFFF0"/>
<path transform="translate(728,836)" d="m0 0h1l1 11 1 4h-2l-2 8 1 5v7l-10 25-9 17-7 10-11 14-9 10-2 1 2-4 4-6 3-3h2l1-4 1-3-2-3-2 1 2-4 10-15 12-23 6-16 4-14 2-10h2z" fill="#FEFDEC"/>
<path transform="translate(1236,582)" d="m0 0h9l8 6 3 6-1 9-4 6-5 4h-11l-6-4-4-7v-9l4-6 5-4z" fill="#DCA72C"/>
<path transform="translate(1237,916)" d="m0 0h7l8 5 4 7v7l-3 6-5 5-6 2-7-1-6-4-4-8 1-9 3-5 5-4z" fill="#DCA72C"/>
<path transform="translate(430,311)" d="m0 0h6l6 3 5 7v12l-3 5-8 5h-8l-7-4-4-8 1-9 3-6 6-4z" fill="#DCA72C"/>
<path transform="translate(1127,1111)" d="m0 0h9l6 4 4 5v13l-7 8-2 1h-12l-6-5-3-7 1-10 7-8z" fill="#DCA72C"/>
<path transform="translate(281,479)" d="m0 0h11l6 4 4 8-1 9-7 8-3 2h-9l-5-3-5-6-1-10 4-8z" fill="#DCA72C"/>
<path transform="translate(847,1278)" d="m0 0h7l6 3 4 5 2 9-3 7-5 5-6 3-9-1-7-8-1-3v-9l6-8z" fill="#DCA72C"/>
<path transform="translate(238,582)" d="m0 0h8l6 4 4 5 1 2v8l-4 7-7 5-8 1-5-2v-2h-2l-5-10 1-8 4-6z" fill="#DCA72C"/>
<path transform="translate(349,387)" d="m0 0h7l8 7 2 5v7l-4 8-5 4-9 1-8-4-4-7v-10l5-8 3-2z" fill="#DCA72C"/>
<path transform="translate(1051,1186)" d="m0 0 8 3 4 5 2 5v7l-3 6-6 5-10 1-5-2-6-7-1-7 3-9 5-5z" fill="#DCA72C"/>
<path transform="translate(431,1186)" d="m0 0 9 2 6 6 2 9-2 7-5 5-5 3-11-1-6-5-2-5v-7l3-7 5-5z" fill="#DCA72C"/>
<path transform="translate(348,1111)" d="m0 0h8l7 5 3 5v9l-3 6-7 6h-10l-5-2v-2h-2l-3-7v-9l4-7 4-3z" fill="#DCA72C"/>
<path transform="translate(1194,1019)" d="m0 0 10 2 6 7 1 3v7l-3 7-9 6h-8l-6-4-4-6v-11l4-7 5-3z" fill="#DCA72C"/>
<path transform="translate(214,806)" d="m0 0h11l7 6 2 4v9l-5 8-6 4h-9l-6-4-4-6v-10l4-7z" fill="#DCA72C"/>
<path transform="translate(629,1278)" d="m0 0 9 1 4 2 5 8-1 11-4 6-8 4-9-1-8-9v-11l4-7z" fill="#DCA72C"/>
<path transform="translate(1261,692)" d="m0 0 8 1 6 4 3 5v12l-7 8-6 2-8-1-7-6-2-5v-7l4-8 6-4z" fill="#DCA72C"/>
<path transform="translate(1050,311)" d="m0 0 5 1 7 5 3 7v7l-6 9-7 3-9-1-6-5-3-8 1-8 4-6 5-3z" fill="#DCA72C"/>
<path transform="translate(627,220)" d="m0 0h10l6 4 3 4 1 9-2 7-6 6-3 1h-10l-5-3-4-7v-10l6-9z" fill="#DCA72C"/>
<path transform="translate(1261,805)" d="m0 0h6l6 4 4 4 1 3v10l-3 5-7 6h-8l-6-3-5-6-1-3v-7l4-8 6-4z" fill="#DCA72C"/>
<path transform="translate(214,693)" d="m0 0h10l6 4 4 6v9l-4 7-6 4-9 1-6-3-4-5-1-2v-11l4-6z" fill="#DCA72C"/>
<path transform="translate(845,220)" d="m0 0h11l7 6 2 5v9l-6 9-4 2h-9l-6-3-5-8v-8l4-8z" fill="#DCA72C"/>
<path transform="translate(287,1019)" d="m0 0 7 2 5 4 3 7-1 8-4 6-5 4-8 1-7-3-4-5-2-5 1-9 4-6 5-3z" fill="#DCA72C"/>
<path transform="translate(238,916)" d="m0 0h7l6 3 4 4 2 5-1 9-4 6-6 4h-10l-6-4-3-5-1-8 3-7 5-5z" fill="#DCA72C"/>
<path transform="translate(527,1243)" d="m0 0 9 2 5 5 2 6-1 9-7 8-9 2-8-3-4-5-1-2v-12l4-6 5-3z" fill="#DCA72C"/>
<path transform="translate(1129,387)" d="m0 0h7l8 6 2 4v11l-6 8-4 2h-10l-6-4-3-4-1-10 4-8 5-4z" fill="#DCA72C"/>
<path transform="translate(737,1290)" d="m0 0h8l6 4 4 5 1 2v7l-3 7-6 5-9 2-5-2-6-7-1-2v-10l5-8z" fill="#DCA72C"/>
<path transform="translate(952,255)" d="m0 0h7l5 3 5 6 1 3v8l-4 6-7 5h-10l-4-2-4-6-1-3v-9l4-7 4-3z" fill="#DCA72C"/>
<path transform="translate(525,255)" d="m0 0h7l6 4 4 5 1 7-3 9-6 5-2 1h-9l-6-3-4-6v-12l4-6 4-3z" fill="#DCA72C"/>
<path transform="translate(954,1243)" d="m0 0 9 2 5 5 2 6-1 9-6 7-3 2h-11l-5-3-4-6v-11l4-7 5-3z" fill="#DCA72C"/>
<path transform="translate(1193,479)" d="m0 0h8l6 4 4 6v9l-5 8-6 4h-8l-7-4-4-7v-9l5-8z" fill="#DCA72C"/>
<path transform="translate(737,208)" d="m0 0h8l7 4 4 7v8l-3 6-7 6h-10l-6-4-4-7v-8l3-6 4-4z" fill="#DCA72C"/>
<path transform="translate(367,807)" d="m0 0h7l1 1 2 24 5 22 7 21 5 11-1 2-3-5v-2l-4 1 2 7 7 13-1 2-8-14-8-19-7-23-4-20-1-20z" fill="#FFF8E1"/>
<path transform="translate(480,969)" d="m0 0 9 2 18 5 17 3 10 1h36v1l-10 1-1 2-4 1h19l12-3h7l-4 2-25 5-16 1h-10l-18-2-24-5-12-4-2-2 6 1h14l2 1v-2l-8-1-16-6z" fill="#FEFEF0"/>
<path transform="translate(725,762)" d="m0 0h1l-1 15-1 7-2 41-3 20-2 4-3-10-3 4 1-15 2-37 3-25h1l-1 17 1-9 5-3z" fill="#FFF8E1"/>
<path transform="translate(1217,702)" d="m0 0h2l2 8 1 7v10l1 3v14l1 3v54l-1 4v11l-2 11-2 4v5h-2l-1 18-5 24-2 7h-3l5-26 4-24 3-24 1-15v-62l-2-24z" fill="#C82B18"/>
<path transform="translate(802,621)" d="m0 0 2 1-4 5 2 1 9-4h3l-13 11-10 9-14 14-14 19-7 10-1-3 12-16-1-7-3 2 2-4 9-11 2-3h2l2-4 8-8 11-9z" fill="#FEFCEA"/>
<path transform="translate(1279,387)" d="m0 0 3 1 15 26 13 24 12 21 6 11-1 4-14 12-4 4h-2l2-4 5-5 9-7 1-6-3-1v-2l-4-2-1-6-2-1-1-2-3-4-2-5-4-4v-3l-4-2-5-10-1-5-2-4-1-5-2-1-1-6-4-6-4-7h-11l3-2z" fill="#C41D16"/>
<path transform="translate(713,838)" d="m0 0 2 1 2 6v8l-7 22-7 15-8 15-7 10-1-2 4-10 3-6 3-3 1-9-2 4h-2l2-6 7-15 6-20 1-5h2z" fill="#FEFDED"/>
<path transform="translate(694,96)" d="m0 0h95l6 26 5 13 7 10 5 6 11 8 4 3-2 1-10-6-13-13-7-10-4-8-2-2-1-16-3-9h-83l-6 4v3h-2l-2 9-2 1 1-9 2-10z" fill="#C52117"/>
<path transform="translate(763,691)" d="m0 0h1l1 8-8 15-5 12-3 7-2 8-3 9-1 4h-2l-2 9-2 4h-3l3-20 8-23 8-18 7-13z" fill="#FEFEEF"/>
<path transform="translate(1337,598)" d="m0 0 9 1 28 1 4 20 8 48v6l-4-1-3-20-2-6-2-17-3-12-3-4-3-10h-13v-2l-5 1-11-3z" fill="#C31B16"/>
<path transform="translate(1e3 163)" d="m0 0h2l-1 15v12l3 14 5 11 7 10 9 9 13 8 8 3 9 2h23l-2 2-11 2-11-1-11-2-8-4-11-6-5-5-4-5-5-5-3-2-3 1-2-6-2-3v-11h-2l-1-10-1-14 1-2 1-10z" fill="#C52317"/>
<path transform="translate(1349,715)" d="m0 0h2l-2 4-6 7-6 11-4 10-2 10v13l3 15 8 16 6 8 9 8v2l-5-2-8-7-4-5-4-2-4-10-4-11-1-7-2-7v-9l1-11 7-10 1-4h-2l2-4 4-1 2-6h3l2-5z" fill="#C51F17"/>
<path transform="translate(734,896)" d="m0 0 1 2-9 17-11 17-10 13-9 11-8 7-1-3 4-1 1-4 6-5 6-10 2-3v-2l-8 6 2-4 9-12 9-15 4-5 1 1 3-3z" fill="#FEFDED"/>
<path transform="translate(444,951)" d="m0 0 9 3 14 7 13 7v2l10 3 14 4v2h-16l-12-3-21-11-7-5-3-5-2-2z" fill="#FEFCF7"/>
<path transform="translate(743,703)" d="m0 0h3l-2 6-8 19-7 24-2 9-2 5-2 6-4 2-2 13h-1l1-14 2-17 4-15 1 4h2v-6l4-4 2-9 3-9 3-4 3-9z" fill="#FFFDED"/>
<path transform="translate(783,701)" d="m0 0 1 3-6 9-9 19-4 11-5 3-3 11-4 6h-1v-9l9-27 4-9 1 2 6-5 6-8h2l2-4z" fill="#FEFEEE"/>
<path transform="translate(1182,1164)" d="m0 0h3l-1 5-5 15-1 14 2 13 5 14 7 13-1 3-4-5-4-2-5-9-2-8v-7h-2l-1-3-1-22 2-8 5-4 3-5z" fill="#C51E16"/>
<path transform="translate(581,1026)" d="m0 0h6l-8 4v2l5 1v1l-34 3h-14l-26-3-2-2 2-2 19 1h21l20-2h6v-2z" fill="#FFFEEF"/>
<path transform="translate(1177,315)" d="m0 0h2l-1 20 2 13 5 13 6 11 11 12 11 7v2l-5-2-9-6-11-11v-2l-4-1v-2l-5-1-2-5-1-5 1-2-3-9-1-25z" fill="#C51F17"/>
<path transform="translate(534,395)" d="m0 0h20l18 3 9 3-3 1-13-3-8-1h-25l-20 4-16 6-16 9-11 8-13 12-10 12v-3l7-9 9-10 10-8 14-9 9-5 16-6 11-3z" fill="#FFF8E1"/>
<path transform="translate(1288,988)" d="m0 0h2l2 18 5 15 6 11 12 13 13 11-1 5-1 2h-2v-7l-4-2-4-5-16-14v-2l-4-1-3-5-3-9-2-5-1-12-1-1v-7z" fill="#C51C16"/>
<path transform="translate(1289,525)" d="m0 0h2v14l4 17 6 13 6 9 9 9 2 1v2l-5-2-2-1v-2l-4-2-8-10-3 1-5-10-3-11v-9h-2v-12z" fill="#C51E17"/>
<path transform="translate(923,395)" d="m0 0h24l16 3 16 5 17 8 4 4-5-2-17-8-16-5-13-2h-27l-18 4-17 6-10 5-14 10-14 13-7 8v-3l9-10 12-11 13-9 16-8 7-3 16-4z" fill="#FFF8E1"/>
<path transform="translate(436,990)" d="m0 0 5 2 27 13 24 8 19 4 16 2h36l25-4 18-5 3 1-16 5-24 5-13 1h-23l-17-2-22-4-20-6-19-8-18-10z" fill="#FFF8E1"/>
<path transform="translate(1009,421)" d="m0 0 4 2 10 9 8 9 9 13 6 10 8 21 4 17 1 9v23l-3 17-8 24-3 6-1-3 6-15 5-18 1-9v-30l-3-15-5-16-8-17-12-17-12-13-7-6z" fill="#FFF8E1"/>
<path transform="translate(694,1256)" d="m0 0 24 1h44l27-1-1 2-3 1-25 2h-25v1h-16l-15-2h-7v-3z" fill="#C61214"/>
<path transform="translate(931,478)" d="m0 0h13l10 3 9 6 5 5 6 9 4 9 1 5v13l-4 12-6 10-11 10-2-1 12-11 6-11 2-9v-12l-4-13-7-10-8-7-7-4-5-1h-17l-8 2-6 2 4-4z" fill="#FFF8E1"/>
<path transform="translate(746,690)" d="m0 0 2 2-1 7-1 4-5 1-2 9-4 5-3 12-1 7-4 2-1 6h-2v-8l7-20 12-25z" fill="#FEFDF8"/>
<path transform="translate(434,590)" d="m0 0 4 1 3 4 3-1 1-2 9 11 9 10 3 4-4-2-6-5v-2h-3v-3h-2l3 6 10 10h-3l-10-10-11-14-3-4-6 2-24 16-7 6-2-1 8-8 17-11z" fill="#FEFBE8"/>
<path transform="translate(444,449)" d="m0 0 1 2-11 21-6 20-3 13v32l4 18 6 18-1 3-6-14-5-20-1-7v-27l3-16 7-21 8-16z" fill="#FFF8E1"/>
<path transform="translate(694,96)" d="m0 0h83l-1 2-74 1-6 4v3h-2l-2 9-2 1 1-9 2-10z" fill="#CB1112"/>
<path transform="translate(1220,808)" d="m0 0 3 3-1 12-2 6-1 7h-2l-1 18-5 24-2 7h-3l5-26 4-24 3-24z" fill="#C62117"/>
<path transform="translate(447,978)" d="m0 0 6 2 19 9 14 5 17 5 23 4 39 1v-2h12v1l-11 2-15 1h-12l-23-2-27-6-22-8-19-10z" fill="#FFF8E1"/>
<path transform="translate(781,722)" d="m0 0 4 4 3 1-2 6-5 11h-2v2l-4 3v3h-2v2l-3-1 1-9 9-21z" fill="#FFFDEC"/>
<path transform="translate(388,881)" d="m0 0h2l3 6 3 3 3 5 2 10 3 2v3h2l2 4-3 2-4-1-6-9-3-8-6-11v-5z" fill="#FEFEEE"/>
<path transform="translate(759,846)" d="m0 0 5 1v12l-5 19-2 6h-1l-2-8 4-4-1-2h-4l2-12 1-4h2z" fill="#FFFDED"/>
<path transform="translate(482,977)" d="m0 0 9 2 6 2 22 4 27 2 16-1 16-2 8-2h7l-4 2-25 5-16 1h-10l-18-2-24-5-12-4z" fill="#FFF8E1"/>
<path transform="translate(1163,255)" d="m0 0 4 1 11 10 11 9 6 5 1 4-11 20-2-1 1-4-3-1 1-6 3-2h4l2-3 1-5-2-1-5-5-12-11-2-1v-2l-4-2z" fill="#C62417"/>
<path transform="translate(491,145)" d="m0 0 2 1-1 2-13 5v12l2 16-1 18-4 10-3 3-1-2 4-11 1-5v-21l-3-20 6-4z" fill="#CA2B18"/>
<path transform="translate(320,522)" d="m0 0 2 1-1 5-8 15-15 34-2 4-2-1 3-11 2-6 1-4 2-2v-2l3-2 4-9 6-13h2z" fill="#C51D16"/>
<path transform="translate(142,726)" d="m0 0 1 2 2 1 4 8 4 9 1 12 2 7h-2l1 6-5 20-1 3-4 1 3-9 2-7 1-10v-11l-3-15-7-14z" fill="#C41F17"/>
<path transform="translate(539,478)" d="m0 0h13l11 4 10 6 8 10 5 12 1 5v13l-3 10-2 2 2-10v-17l-3-9-7-11-8-7-8-4-5-1h-16l-10 3-4 1 3-3z" fill="#FFF8E1"/>
<path transform="translate(1128,472)" d="m0 0 3 1v2h2l3 5 1 3 2 1 4 7 2 5h2v3h2l3 5v3h2l6 11 8 16 1 4-2 1-13-25-13-21-13-19z" fill="#C72617"/>
<path transform="translate(814,598)" d="m0 0 2 1-11 8-16 13-10 8-11 11v-3l4-4 3-5 8-7 4-3h3l2-4 4-5 5-5 9-4z" fill="#FFFEEE"/>
<path transform="translate(560,119)" d="m0 0 5 1 9 16 8 11 7 7 11 7 9 4 5 1v1h-7l-9-4-10-6-12-12-4-6-2-2-2-5-4-8-4-1h-5v-2z" fill="#C62417"/>
<path transform="translate(736,875)" d="m0 0h1v9l-2 10-3 1-2 6-4 3h-2l-1 3-1-4 9-21 3-6z" fill="#FEFDF8"/>
<path transform="translate(793,661)" d="m0 0h2l-2 4-7 8h-2l-2 5-14 19-12 23-7 18h-1l1-7 6-16 4-7 6-11 4-7h2l2-5 7-9h2l2-5 5-6z" fill="#FFF8E1"/>
<path transform="translate(480,969)" d="m0 0 9 2 18 5 17 3 10 1h36v1l-15 2h-25l-22-4-21-6-7-3z" fill="#FFF8E1"/>
<path transform="translate(434,1144)" d="m0 0 4 2 14 12 11 8 14 10 11 7v2l-4-1-8-5v-2l-6-2-8-6-2-1v-2l-5-2-13-11-2-1v-2l-6-3z" fill="#C62518"/>
<path transform="translate(304,1185)" d="m0 0 4 1v21h-2l1 9-3 3-1 4-5 5-1-2 4-10 3-15z" fill="#C72E19"/>
<path transform="translate(142,598)" d="m0 0h6l-4 2-9 2-16 2-6 2-1-2-4 12-2 1 1-11 2-6 26-1z" fill="#C71B15"/>
<path transform="translate(793,629)" d="m0 0 3 1v5l-8 8-7 3-7 5 1-4 1-2h2l2-4 8-8z" fill="#FEFDF9"/>
<path transform="translate(1006,1312)" d="m0 0h4l1 6-4 10-2 11h-1l-1 5-2-1-2-14 3-5 4-3 1-4h-3v-2h2z" fill="#C52117"/>
<path transform="translate(473,1317)" d="m0 0 4 5 3 8 1 8v23l-3 2-2 3 1-11v-20l-3-11z" fill="#C82617"/>
<path transform="translate(743,703)" d="m0 0h3l-2 6-8 19-3 9-2-2v-7l3-10 4-5 3-9z" fill="#FFFCEB"/>
<path transform="translate(426,702)" d="m0 0v3l-3 7-4 7-6 7h-2l-2 5-10 23-1-3 9-21 9-15 8-11z" fill="#FFF8E1"/>
<path transform="translate(1315,1060)" d="m0 0 1 2h2l3 3 3-1-1 4-7 13h-2l2-5 1-2-4-2-2-6 2-5z" fill="#C41B16"/>
<path transform="translate(811,635)" d="m0 0h2v8h-2v2h-2l-2 4-6 4-3 3-1-2 2-5 2-4 5-5z" fill="#FEFDFC"/>
<path transform="translate(763,691)" d="m0 0h1v6l-9 15-3 4h-2l1-6 9-17z" fill="#FEFCF7"/>
<path transform="translate(1174,551)" d="m0 0 3 1 6 14 4 10v2l2 1 4 13v3h-2l-11-28-6-13z" fill="#C72317"/>
<path transform="translate(416,966)" d="m0 0 4 2 12 9 15 10 17 9-3 1-23-12-6-4v-2l-4-2-9-6-3-3z" fill="#FFF8E1"/>
<path transform="translate(792,1407)" d="m0 0 2 1-2 12-3 12h-9l-1-2h2v-2h2l1-5 4-1 2-7 1-5z" fill="#C21616"/>
<path transform="translate(394,899)" d="m0 0 6 1 1 6 3 1v3h2l2 4-3 2-4-1-6-9z" fill="#FEFCF7"/>
<path transform="translate(955,559)" d="m0 0 9 1v2h9l7 1 1 3h-12l-25-2v-1h12z" fill="#FEFEF2"/>
<path transform="translate(1374,827)" d="m0 0 5 1 11 4v9l-2 10-2 1 1-11-3-1 1-5h-2l-3-3-4-2v-2z" fill="#C72718"/>
<path transform="translate(1209,652)" d="m0 0 2 2 1 8h2l-1 7 2 1 1 5 1 4v14l-2 1-4-24-2-10z" fill="#C72317"/>
<path transform="translate(1215,393)" d="m0 0 5 1 6 2 7 1h14l10-2 4 1-10 4h-23l-12-4z" fill="#C42017"/>
<path transform="translate(434,590)" d="m0 0 4 1 5 6-1 2-5-6-6 2-24 16-7 6-2-1 8-8 17-11z" fill="#FFF8E1"/>
<path transform="translate(1380,876)" d="m0 0 2 1v9l-5 29-3-3 2-12 1-1 1-14z" fill="#C71F16"/>
<path transform="translate(1386,677)" d="m0 0 2 1 2 12v7l-4 2-4-1-2-1 1-4 5-2v-1l-1-7z" fill="#C41815"/>
<path transform="translate(1220,808)" d="m0 0 3 3-1 12-2 6-1 2-3 2 1-13 1-9z" fill="#C52317"/>
<path transform="translate(100,646)" d="m0 0 2 2v8l-3 17-3 11-2 1 1-10z" fill="#C72517"/>
<path transform="translate(1304,492)" d="m0 0 1 3-6 9-4 8-3 8-2 2v-11l1-3 5-5 2-3-1-2 2-2 3-1z" fill="#C41D16"/>
<path transform="translate(1e3 163)" d="m0 0h2l-1 15-1 11h-2l-2-4v-7l1-2 1-10z" fill="#C61E16"/>
<path transform="translate(991,146)" d="m0 0 6 1 10 4 1 1-1 9h-3-2l-1-5v-2l-1-3-9-3z" fill="#C51E17"/>
<path transform="translate(225,396)" d="m0 0h33l-1 3-19 2-10-2-3-1z" fill="#C9361A"/>
<path transform="translate(783,701)" d="m0 0 1 3-6 9-9 19-4 11-2-4 5-13 1-2h2l1-5 9-15z" fill="#FFF8E1"/>
<path transform="translate(912,485)" d="m0 0 2 1-10 11-5 9-2 7v22l-2-3-1-5v-9l3-13 7-12z" fill="#FFF8E1"/>
<path transform="translate(1191,288)" d="m0 0 2 1-8 15-2-1 1-4-3-1 1-6 3-2 5-1z" fill="#C41615"/>
<path transform="translate(320,522)" d="m0 0 2 1-1 5-8 15-3 7h-3l1-5 7-14h2z" fill="#C52418"/>
<path transform="translate(358,220)" d="m0 0 4 1 10 9 11 8 3 2v2l-5-2-8-6-9-7v-2l-8-1-3 2 2-4z" fill="#C62317"/>
<path transform="translate(1151,507)" d="m0 0h3l6 11 8 16 1 4-2 1-13-25-3-5z" fill="#C72317"/>
<path transform="translate(142,726)" d="m0 0 1 2 2 1 4 8 4 9v12h-2l-3-15-7-14z" fill="#C92B18"/>
<path transform="translate(1207,886)" d="m0 0 1 4-2 9-5 15-3 1 4-16 3-11z" fill="#C62317"/>
<path transform="translate(230,718)" d="m0 0 3 1-3 6-7 3-7-1-2-1v-2l10-2z" fill="#CA1113"/>
<path transform="translate(354,469)" d="m0 0h2l-1 4-11 16-8 13-3-2 1-2h2l2-4 1-3h2l1-4 6-9z" fill="#C61E16"/>
<path transform="translate(396,617)" d="m0 0 2 1-10 10h-2l-2 4-17 17v-3l11-11 7-8z" fill="#FFF8E1"/>
<path transform="translate(694,96)" d="m0 0 8 1v2l-6 4v3h-2l-2 9-2 1 1-9 2-10z" fill="#C72618"/>
<path transform="translate(790,616)" d="m0 0 2 1-14 12-10 10v-3l4-4 3-5 8-7z" fill="#FFFAE6"/>
<path transform="translate(833,628)" d="m0 0 2 1-16 11-5 3-2-4v-5l4-2 1 4 5-1 5-4z" fill="#FEFBE8"/>
<path transform="translate(1094,1098)" d="m0 0 2 1-6 8-9 9-8 7-4 4-2-1 24-24z" fill="#CC3C1B"/>
<path transform="translate(1217,702)" d="m0 0h2l2 8 1 7-2 17h-1l-2-24z" fill="#C92E18"/>
<path transform="translate(479,181)" d="m0 0h2l-1 18-4 10-3 3-1-2 4-11 2-6z" fill="#C62217"/>
<path transform="translate(698,894)" d="m0 0 1 4-10 16-2 1 2-8 5-9z" fill="#FFFCEA"/>
<path transform="translate(1326,468)" d="m0 0 2 2-1 4-14 12-4 4h-2l2-4 5-5 9-7z" fill="#C71E16"/>
<path transform="translate(819,1251)" d="m0 0h6l-1 2-16 3h-17v-1z" fill="#CC3619"/>
<path transform="translate(192,984)" d="m0 0 2 1 1 7v9l-3 9-2 1z" fill="#C61214"/>
<path transform="translate(1141,235)" d="m0 0 4 2 11 10 6 5v2l-4-2-3-2v-2l-6-3v-2h-2v-2l-6-3z" fill="#C72A18"/>
<path transform="translate(722,918)" d="m0 0v3l-7 11-10 13-2 1 2-5 4-6h2l1-4 6-7 3-5z" fill="#FFF8E1"/>
<path transform="translate(1217,832)" d="m0 0 2 4h-2l-1 18-3 5h-1l1-10 2-14z" fill="#C72818"/>
<path transform="translate(1193,596)" d="m0 0 3 3 5 15-1 6-2-4-5-15z" fill="#C72A18"/>
<path transform="translate(1e3 1336)" d="m0 0h1l1 25 1 8-2-1-3-10z" fill="#C71213"/>
<path transform="translate(408,922)" d="m0 0 7 6 16 17 3 4-4-2-14-14-7-8z" fill="#FFF8E1"/>
<path transform="translate(426,702)" d="m0 0v3l-3 7-4 7-6 7-1-2 7-11 3-7z" fill="#FFFDEB"/>
<path transform="translate(1168,988)" d="m0 0 1 3-3 8-6 12-4 2 2-5z" fill="#CB3219"/>
<path transform="translate(291,1237)" d="m0 0h1v10l3 4-1 4-7-7 1-5z" fill="#C72517"/>
<path transform="translate(420,925)" d="m0 0 7 6 8 8 11 9h-3l-15-12v-2l-3-1-5-6z" fill="#FFF8E1"/>
<path transform="translate(663,1252)" d="m0 0 11 1 17 2-2 2-16-1-10-2z" fill="#CB3319"/>
<path transform="translate(1316,1047)" d="m0 0 5 3 7 6-1 5-1 2h-2v-7l-4-2-4-5z" fill="#C62618"/>
<path transform="translate(1337,598)" d="m0 0 9 1 26 1v1l-19 1-5 1-11-3z" fill="#CD1F14"/>
<path transform="translate(1074,247)" d="m0 0h8l-2 2-11 2-11-1v-2z" fill="#C71715"/>
<path transform="translate(98,830)" d="m0 0 2 1-3 3-1 11-2 3-2-15z" fill="#CA341A"/>
<path transform="translate(1376,699)" d="m0 0m-2 1 3 1-3 2-16 8-4 3-2-1 4-5 12-5z" fill="#C72317"/>
<path transform="translate(714,885)" d="m0 0 2 2-1 5-5 6h-2l1-6 3-6z" fill="#FEFCF7"/>
<path transform="translate(817,1371)" d="m0 0h2v2l-7 5-1 2h-2l-1 3-5-2 5-5 3-1 3-2z" fill="#C52418"/>
<path transform="translate(180,1103)" d="m0 0 4 2 3 6 5 9-1 3-3-4-8-14z" fill="#C72417"/>
<path transform="translate(264,696)" d="m0 0h2v10l-1 10-2 1v-20z" fill="#C72718"/>
<path transform="translate(303,345)" d="m0 0 2 2 1 5h-2v6l-3 3-4 6-1-2 5-12z" fill="#C82D19"/>
<path transform="translate(101,879)" d="m0 0 2 2 2 15v7l-2-2-3-17z" fill="#C82D19"/>
<path transform="translate(1385,853)" d="m0 0h1v9l-2 13-2 1v-17z" fill="#C82A18"/>
<path transform="translate(1184,575)" d="m0 0 3 1v2l2 1 4 13v3h-2l-7-18z" fill="#C72A18"/>
<path transform="translate(160,461)" d="m0 0 1 2-2 10v2l4 2v2l-4-2-5-6z" fill="#C62A19"/>
<path transform="translate(918,119)" d="m0 0 7 1 10 4-4 1-7-2-5 1-3 3-2-1z" fill="#CA3319"/>
<path transform="translate(477,1367)" d="m0 0h1v9l5 2 2 1v2l-9-3-1-1v-9z" fill="#C82517"/>
<path transform="translate(298,1165)" d="m0 0 3 2v3l2 1 3 9-3 4-4-13z" fill="#C92E19"/>
<path transform="translate(1213,673)" d="m0 0h2l2 6v14l-2 1-2-14z" fill="#C92B18"/>
<path transform="translate(766,660)" d="m0 0 2 3-2 5-2 2-4-1 1-5z" fill="#FEFDFB"/>
<path transform="translate(186,505)" d="m0 0 3 3v4l2 1 2 9-1 7h-1l-3-15-2-5z" fill="#CA3519"/>
<path transform="translate(694,929)" d="m0 0h2l-2 4-5 7-5 5-4 3 2-4 4-6 3-3h2l1-4z" fill="#FFFBE7"/>
<path transform="translate(399,897)" d="m0 0 4 5 8 11v3l-5-4v-2h-2v-3l-4-1z" fill="#FFFAE7"/>
<path transform="translate(305,323)" d="m0 0 2 3 1 7v9l-4 2z" fill="#C72217"/>
<path transform="translate(1190,1151)" d="m0 0 3 1-1 4-2 3h-5l-2-4 6-3z" fill="#C61F16"/>
<path transform="translate(1309,1088)" d="m0 0 1 3-8 15h-3l2-4 1-3 3-6v-2l3-1z" fill="#C51C16"/>
<path transform="translate(1349,715)" d="m0 0h2l-2 4-6 7-4 5-1-3 2-5h3l2-5z" fill="#C82918"/>
<path transform="translate(332,502)" d="m0 0 3 1-9 16h-3v-2h2l2-7 3-5h2z" fill="#C51F17"/>
<path transform="translate(780,1256)" d="m0 0h9l-1 2-3 1-23-1v-1z" fill="#CE441C"/>
<path transform="translate(759,1258)" d="m0 0h17l-3 2-19 1-1-2z" fill="#C11316"/>
<path transform="translate(1166,1232)" d="m0 0 5 3 2-2 3 10-4-1v-3l-4-1-2-3z" fill="#C11316"/>
<path transform="translate(701,946)" d="m0 0h2l-2 4-5 6-8 7-1-3 4-1 1-4 6-5z" fill="#FFFAE5"/>
<path transform="translate(905,642)" d="m0 0 10 2-4 1 3 1-1 2-5 1-4-2-6-1v-1l6-1z" fill="#FFF9E3"/>
<path transform="translate(694,1256)" d="m0 0 24 1v1l-13 1-1 1h-7v-3z" fill="#CD3C1A"/>
<path transform="translate(685,916)" d="m0 0v3l-7 9h-2l1-5 1-4z" fill="#FEFBE9"/>
<path transform="translate(1310,942)" d="m0 0 3 1-2 4-6 7-2-2 3-4v-3h2v-2z" fill="#C61D16"/>
<path transform="translate(1377,899)" d="m0 0 2 1-2 15-3-3 2-12z" fill="#C82F19"/>
<path transform="translate(1386,677)" d="m0 0 2 1 2 16-4-4-1-7z" fill="#C72417"/>
<path transform="translate(808,601)" d="m0 0 3 1-17 14-2-1 9-8 4-4z" fill="#FFF8E1"/>
<path transform="translate(1128,472)" d="m0 0 3 1v2h2l3 5 1 3 2 1v3l-3-1-8-12z" fill="#C62417"/>
<path transform="translate(875,164)" d="m0 0 2 1-5 3-10 3-1-1-11-1v-1l14-1z" fill="#D04C1D"/>
<path transform="translate(1205,1142)" d="m0 0 2 1-15 15v-3l7-8z" fill="#FEFAEB"/>
<path transform="translate(336,809)" d="m0 0 5 1v6l-2 2h-3z" fill="#FFFFF0"/>
<path transform="translate(468,356)" d="m0 0h2v2l-15 11-1-3 7-5h2v-2z" fill="#C82C18"/>
<path transform="translate(1220,808)" d="m0 0 3 3-1 8-2 1-2-2v-7z" fill="#C71D16"/>
<path transform="translate(149,742)" d="m0 0h2l2 4v12h-2z" fill="#C72918"/>
<path transform="translate(1204,635)" d="m0 0h2l2 3 1 5v8l-2-1-3-12z" fill="#C92917"/>
<path transform="translate(1160,523)" d="m0 0 3 1 6 12-1 3-3-4-5-10z" fill="#C82D19"/>
<path transform="translate(150,779)" d="m0 0 2 2-2 10-1 3-4 1 3-9z" fill="#C92A18"/>
<path transform="translate(1108,445)" d="m0 0 7 6 4 6v2l-3-1-8-10z" fill="#C7321A"/>
<path transform="translate(1041,243)" d="m0 0 18 4-1 2-11-1-6-3z" fill="#C92B18"/>
<path transform="translate(304,1185)" d="m0 0 4 1-1 10-1 5h-1z" fill="#CB1E15"/>
<path transform="translate(225,596)" d="m0 0 2 4 2 5-1 5-1-2-2-1-2-9h2z" fill="#C51214"/>
<path transform="translate(1215,393)" d="m0 0 5 1 6 2 7 1v1l-8 1-10-4z" fill="#CA3419"/>
<path transform="translate(105,905)" d="m0 0 2 2 1 3v16h-1l-2-14z" fill="#CB3519"/>
<path transform="translate(214,724)" d="m0 0h10l2 3-8 1-4-2z" fill="#C11215"/>
<path transform="translate(268,675)" d="m0 0h1v8l-2 8h-1v-13z" fill="#C71F16"/>
<path transform="translate(1102,236)" d="m0 0 2 1-5 5-7 4-3-1 3-3z" fill="#C92C18"/>
<path transform="translate(362,1303)" d="m0 0 4 1-6 5-4-1-1-3 5-1 2 1z" fill="#C61614"/>
<path transform="translate(492,1187)" d="m0 0 5 2 11 6-2 2-14-8z" fill="#C8321A"/>
<path transform="translate(175,1038)" d="m0 0 1 3-9 8-4 3-2-1 11-10z" fill="#C82818"/>
<path transform="translate(1210,873)" d="m0 0h1l-1 10-1 2h-3l2-11z" fill="#C62417"/>
<path transform="translate(1081,415)" d="m0 0 4 1v3h2l6 7v2l-4-2-8-9z" fill="#C82417"/>
<path transform="translate(437,379)" d="m0 0 2 1-1 3-10 8-2-1 5-5 5-4z" fill="#C72918"/>
<path transform="translate(657,160)" d="m0 0 2 1-3 3-11 4-3-1 3-2z" fill="#CA3119"/>
<path transform="translate(792,1407)" d="m0 0 2 1-2 12-1 5h-1l-1-9 2-3v-5z" fill="#CD401B"/>
<path transform="translate(817,1373)" d="m0 0 2 1-14 14v-3l4-5h2l1-3z" fill="#FEFAEC"/>
<path transform="translate(301,1216)" d="m0 0h3v7h-2l-2 4-3 1 2-6z" fill="#C92E19"/>
<path transform="translate(305,1208)" d="m0 0 2 2v6l-5 1v-5z" fill="#C62017"/>
<path transform="translate(157,1054)" d="m0 0h3l-2 9h2l-1 3-3-4-2-4z" fill="#C92E19"/>
<path transform="translate(1304,492)" d="m0 0 1 3-6 9-2-1v-4l2-3 3-1z" fill="#C62919"/>
<path transform="translate(491,145)" d="m0 0 2 1-1 2-10 4-3-1 1-2z" fill="#C62919"/>
<path transform="translate(1178,1260)" d="m0 0h2l-2 4-7 6-3-1 7-7z" fill="#C82A18"/>
<path transform="translate(1334,730)" d="m0 0h5l-1 4-1 3h-3v-3h-2z" fill="#C41C16"/>
<path transform="translate(272,389)" d="m0 0h2l-2 4-7 1v2l-5 1 4-4z" fill="#C62518"/>
<path transform="translate(842,168)" d="m0 0 19 1-2 2h-11l-6-2z" fill="#C31215"/>
<path transform="translate(596,160)" d="m0 0 6 2 7 3 5 1v1h-7l-9-4-2-1z" fill="#CB2E18"/>
<path transform="translate(1186,1229)" d="m0 0 4 5 2 4-1 3-4-5-2-2z" fill="#C93019"/>
<path transform="translate(759,872)" d="m0 0 1 3-3 9h-1l-2-8 3-3z" fill="#FFFCEA"/>
<path transform="translate(721,753)" d="m0 0 2 4-2 7-2 1v-9z" fill="#FEFDF8"/>
<path transform="translate(93,687)" d="m0 0 2 2 2 7 2 3-6-2-1-5z" fill="#C93019"/>
<path transform="translate(100,646)" d="m0 0 2 2v8l-1 3-3 1z" fill="#C72B18"/>
<path transform="translate(560,119)" d="m0 0 5 1 1 5-6-2h-5v-2z" fill="#C72117"/>
<path transform="translate(477,1355)" d="m0 0h3l1 6-3 2-2 3z" fill="#CA401C"/>
<path transform="translate(228,808)" d="m0 0h3v2l4 1 1 7-1 5h-1l-2-9z" fill="#C21215"/>
<path transform="translate(804,672)" d="m0 0 3 1-8 9-1 2h-2l2-4 4-6z" fill="#FFFAE6"/>
<path transform="translate(1119,460)" d="m0 0 4 1 3 6 3 3h-4l-6-8z" fill="#C82C18"/>
<path transform="translate(346,418)" d="m0 0h12v3l-6 1-7-2z" fill="#C31215"/>
<path transform="translate(301,269)" d="m0 0 2 1-8 7-3 4h-2v-3z" fill="#C72C19"/>
<path transform="translate(1245,946)" d="m0 0h2l-1 4h-3l-2 2-1-3-6-1 4-1z" fill="#C41215"/>
<path transform="translate(1194,925)" d="m0 0 2 3-1 6h-2l-1 4-2 1 3-11z" fill="#CA3219"/>
<path transform="translate(1374,916)" d="m0 0h2l-1 8-2 4-1-8z" fill="#CA2C18"/>
<path transform="translate(1220,727)" d="m0 0h2l1 3-1 14h-1l-1-7z" fill="#C11316"/>
<path transform="translate(278,631)" d="m0 0h1l-1 9-2 5-2-4 2-5z" fill="#C93219"/>
<path transform="translate(358,220)" d="m0 0 4 1 2 4-8-1-3 2 2-4z" fill="#C82717"/>
<path transform="translate(347,1142)" d="m0 0h8v2l2 1-5 1-6-2z" fill="#C11316"/>
<path transform="translate(235,947)" d="m0 0h13v3h-9z" fill="#C41214"/>
<path transform="translate(1202,905)" d="m0 0h1l-1 8-4 2 2-9z" fill="#C82818"/>
<path transform="translate(341,490)" d="m0 0 2 1-7 11-3-2 1-2h2l2-4 1-3z" fill="#C92D18"/>
<path transform="translate(637,167)" d="m0 0h4v2l-8 1-10-1v-1z" fill="#CE491C"/>
<path transform="translate(473,1317)" d="m0 0 4 5 1 7-2 1-3-9z" fill="#CB3419"/>
<path transform="translate(380,1289)" d="m0 0m-1 1 3 2-10 7h-2v-2l7-5h2z" fill="#C72F19"/>
<path transform="translate(1199,1050)" d="m0 0 4 1-2 2-4 1-7-2v-1z" fill="#C11215"/>
<path transform="translate(1146,1028)" d="m0 0 2 1-5 9-3 3-2-1z" fill="#CA3A1B"/>
<path transform="translate(1155,1013)" d="m0 0h1v5l-3 3-2 5-3 1 2-5z" fill="#CA341A"/>
<path transform="translate(193,999)" d="m0 0 2 2-3 9-2 1 1-10z" fill="#C92F19"/>
<path transform="translate(648,953)" d="m0 0 2 1-11 8h-2l1-3z" fill="#FFFAE5"/>
<path transform="translate(1372,924)" d="m0 0h1v5h-11l3-2 6-2z" fill="#C41214"/>
<path transform="translate(1383,840)" d="m0 0h2l1 5-5 3-1-6z" fill="#C11215"/>
<path transform="translate(1219,822)" d="m0 0h1v9l-4 2 1-8z" fill="#C81D15"/>
<path transform="translate(1326,468)" d="m0 0 2 2-1 4-5 4-2-1 3-3z" fill="#C62317"/>
</svg>
